<svg xmlns="http://www.w3.org/2000/svg" viewBox="0 0 360 310" role="img" aria-labelledby="title desc"><title id="title">Tummy Trouble Detective</title><desc id="desc">Simplified labeled teaching schematic for Tummy Trouble Detective. Not to scale.</desc><rect width="360" height="310" rx="20" fill="#101b34"/><g font-family="system-ui,Segoe UI,sans-serif"><path d="M144 70 V99 Q229 75 244 124 Q250 164 180 161 Q145 155 144 122" fill="#623649" stroke="#ff9fbd" stroke-width="3" stroke-linejoin="round" stroke-linecap="round"/><text x="265" y="84" font-size="14" fill="#eff5ff" text-anchor="middle">Stomach</text><path d="M257 91 L228 112" fill="none" stroke="#88e7e2" stroke-width="3"/><path d="M171 160 C113 143 95 174 112 217 Q136 257 263 225 L274 184 Q240 166 203 182 Q164 192 183 210 Q221 229 244 205" fill="none" stroke="#f7cb70" stroke-width="3" stroke-linejoin="round" stroke-linecap="round"/><text x="83" y="268" font-size="15" fill="#eff5ff" text-anchor="middle">Intestine</text><path d="M96 253 L128 220" fill="none" stroke="#88e7e2" stroke-width="3"/><text x="73" y="82" font-size="13" fill="#eff5ff" text-anchor="middle">Esophagus</text><path d="M110 89 L139 89" fill="none" stroke="#88e7e2" stroke-width="3"/></g></svg>