<svg xmlns="http://www.w3.org/2000/svg" viewBox="0 0 360 310" role="img" aria-labelledby="title desc"><title id="title">Newborn Feeding Coach</title><desc id="desc">Simplified labeled teaching schematic for Newborn Feeding Coach. Not to scale.</desc><rect width="360" height="310" rx="20" fill="#101b34"/><g font-family="system-ui,Segoe UI,sans-serif"><circle cx="180" cy="91" r="28" fill="#173644" stroke="#f7cb70" stroke-width="2"/><path d="M162 121 Q137 141 142 193 Q180 228 218 193 Q223 141 198 121 Z" fill="#46335e" stroke="#e0b3ff" stroke-width="3" stroke-linejoin="round" stroke-linecap="round"/><path d="M151 143 L205 187 M154 174 L201 139" fill="none" stroke="#e0b3ff" stroke-width="3" stroke-linejoin="round" stroke-linecap="round"/><circle cx="171" cy="89" r="2" fill="#173644" stroke="#f7cb70" stroke-width="2"/><circle cx="189" cy="89" r="2" fill="#173644" stroke="#f7cb70" stroke-width="2"/><path d="M174 104 Q180 110 186 104" fill="none" stroke="#f7cb70" stroke-width="3" stroke-linejoin="round" stroke-linecap="round"/><path d="M67 112 L105 126 L93 172 L55 157 Z" fill="#204f60" stroke="#88e7e2" stroke-width="3" stroke-linejoin="round" stroke-linecap="round"/><path d="M80 115 L87 96 L110 105 L105 126" fill="none" stroke="#f7cb70" stroke-width="3" stroke-linejoin="round" stroke-linecap="round"/><text x="75" y="199" font-size="14" fill="#eff5ff" text-anchor="middle">Bottle</text><text x="280" y="87" font-size="15" fill="#eff5ff" text-anchor="middle">Observe</text><text x="280" y="111" font-size="15" fill="#eff5ff" text-anchor="middle">latch</text><text x="280" y="137" font-size="15" fill="#eff5ff" text-anchor="middle">swallow</text><text x="280" y="163" font-size="15" fill="#eff5ff" text-anchor="middle">comfort</text><rect x="49" y="244" width="122" height="37" rx="12" fill="#172d49" stroke="#f7cb70" stroke-width="2"/><text x="110.0" y="267.5" font-size="15" fill="#eff5ff" text-anchor="middle">Wet diapers</text><rect x="189" y="244" width="122" height="37" rx="12" fill="#172d49" stroke="#e0b3ff" stroke-width="2"/><text x="250.0" y="267.5" font-size="15" fill="#eff5ff" text-anchor="middle">Weight trend</text></g></svg>