<svg xmlns="http://www.w3.org/2000/svg" viewBox="0 0 360 310" role="img" aria-labelledby="title desc"><title id="title">Oncology &amp; Comfort Care Rounds</title><desc id="desc">Simplified labeled teaching schematic for Oncology &amp; Comfort Care Rounds. Not to scale.</desc><rect width="360" height="310" rx="20" fill="#101b34"/><g font-family="system-ui,Segoe UI,sans-serif"><path d="M180 162 C110 122 115 78 146 79 Q171 75 180 100 Q189 75 214 79 C245 78 250 122 180 162 Z" fill="#65324c" stroke="#ff9fbd" stroke-width="3" stroke-linejoin="round" stroke-linecap="round"/><path d="M55 159 L95 190 L149 193 L173 217 M305 159 L265 190 L211 193 L187 217" fill="none" stroke="#f7cb70" stroke-width="10" stroke-linejoin="round" stroke-linecap="round"/><rect x="22" y="238" width="99" height="43" rx="12" fill="#172d49" stroke="#88e7e2" stroke-width="2"/><text x="71.5" y="264.5" font-size="15" fill="#eff5ff" text-anchor="middle">Comfort</text><rect x="131" y="238" width="99" height="43" rx="12" fill="#172d49" stroke="#e0b3ff" stroke-width="2"/><text x="180.5" y="264.5" font-size="15" fill="#eff5ff" text-anchor="middle">Values</text><rect x="240" y="238" width="99" height="43" rx="12" fill="#172d49" stroke="#f7cb70" stroke-width="2"/><text x="289.5" y="264.5" font-size="15" fill="#eff5ff" text-anchor="middle">Support</text></g></svg>